<svg width="210" height="75" viewBox="0 0 210 75" fill="none" xmlns="http://www.w3.org/2000/svg">
<path d="M92.4736 53.6303C92.4736 54.6233 92.2253 55.5428 91.7287 56.3887C91.232 57.2163 90.4963 57.8875 89.5214 58.4024C88.5465 58.8989 87.3601 59.1472 85.9621 59.1472C84.5825 59.1472 83.3501 58.9173 82.2649 58.4576C81.1796 57.9794 80.3059 57.299 79.6437 56.4163C78.9999 55.5336 78.632 54.5038 78.54 53.3269H80.4388C81.7157 53.3269 82.7138 54.4102 83.6168 55.3129C84.1687 55.8279 84.8952 56.0853 85.7966 56.0853C86.6059 56.0853 87.2221 55.8738 87.6452 55.4509C88.0866 55.0095 88.3074 54.4486 88.3074 53.7682C88.3074 53.1614 88.1326 52.6648 87.7831 52.2787C87.4336 51.8741 86.9922 51.5523 86.4587 51.3132C85.9253 51.0741 85.1895 50.7983 84.2514 50.4857C83.0374 50.0811 82.0441 49.6857 81.2716 49.2995C80.499 48.895 79.8368 48.3157 79.285 47.5617C78.7516 46.8077 78.4849 45.8239 78.4849 44.6102C78.4849 42.9367 79.0827 41.6219 80.2783 40.6656C81.4923 39.6909 83.0926 39.2036 85.0792 39.2036C87.1393 39.2036 88.7764 39.7001 89.9904 40.6932C91.2228 41.6862 91.9218 43.0103 92.0874 44.6653H89.8561C88.7259 44.6653 87.8411 43.7216 87.0106 42.9551C86.5323 42.4954 85.8793 42.2655 85.0516 42.2655C84.3342 42.2655 83.7548 42.4586 83.3133 42.8448C82.8719 43.2126 82.6511 43.7551 82.6511 44.4722C82.6511 45.0423 82.8167 45.5205 83.1478 45.9066C83.4973 46.2744 83.9295 46.5779 84.4446 46.8169C84.978 47.056 85.6954 47.3226 86.5967 47.6169C87.8475 48.0582 88.8592 48.472 89.6317 48.8582C90.4227 49.2444 91.0941 49.8236 91.6459 50.596C92.1977 51.3684 92.4736 52.3798 92.4736 53.6303Z" fill="#55A630"/>
<path d="M100.058 42.5689V47.6169H106.955V50.596H100.058V55.837H104.666C106.388 55.837 107.783 57.2326 107.783 58.9541H96.1672V39.4795H107.783C107.783 41.1857 106.4 42.5689 104.694 42.5689H100.058Z" fill="#55A630"/>
<path d="M115.382 55.975H118.942C120.587 55.975 121.921 57.3088 121.921 58.9541H111.491V39.4795C113.64 39.4795 115.382 41.2212 115.382 43.3698V55.975Z" fill="#55A630"/>
<path d="M128.954 55.975H132.514C134.159 55.975 135.493 57.3088 135.493 58.9541H125.064V39.4795C127.212 39.4795 128.954 41.2212 128.954 43.3698V55.975Z" fill="#55A630"/>
<path d="M142.527 42.5689V47.6169H149.424V50.596H142.527V55.837H147.135C148.857 55.837 150.252 57.2326 150.252 58.9541H138.636V39.4795H150.252V42.5689H142.527Z" fill="#55A630"/>
<path d="M168.418 58.9541C165.748 58.9541 163.273 57.5532 161.899 55.2635L159.561 51.3684H157.851V55.0637C157.851 57.2123 156.109 58.9541 153.96 58.9541V39.4795H161.382C163.645 39.4795 165.365 40.0311 166.542 41.1345C167.737 42.2379 168.335 43.6907 168.335 45.4929C168.335 46.964 167.921 48.1961 167.094 49.1892C166.284 50.1822 165.107 50.8443 163.562 51.1753L168.418 58.9541ZM157.851 48.6927H161.051C163.277 48.6927 164.39 47.7088 164.39 45.7411C164.39 44.8033 164.114 44.0769 163.562 43.562C163.028 43.0287 162.192 42.762 161.051 42.762H157.851V48.6927Z" fill="#55A630"/>
<path d="M94.8603 12.6054C94.8603 14.8891 93.009 16.7404 90.7254 16.7404H89.0744V34.1009H83.8912V16.7404H82.3004C80.0168 16.7404 78.1655 14.8891 78.1655 12.6054H94.8603Z" fill="#007F5F"/>
<path d="M113.968 34.1009C110.448 34.1009 107.198 32.2097 105.46 29.1485L103.662 25.9831H102.487V28.9478C102.487 31.7938 100.18 34.1009 97.3337 34.1009V12.6054H106.133C107.821 12.6054 109.247 12.8993 110.412 13.4871C111.577 14.075 112.451 14.8857 113.034 15.9194C113.617 16.9329 113.908 18.0984 113.908 19.4159C113.908 20.9766 113.476 22.3042 112.612 23.3988C111.768 24.4933 110.533 25.2433 108.905 25.6487L113.968 34.1009ZM102.487 22.4259H105.681C106.706 22.4259 107.459 22.2029 107.941 21.757C108.423 21.2908 108.664 20.6118 108.664 19.7199C108.664 18.8686 108.413 18.1997 107.911 17.7133C107.429 17.2268 106.686 16.9836 105.681 16.9836H102.487V22.4259Z" fill="#007F5F"/>
<path d="M116.673 12.6054C119.502 12.6054 121.795 14.8991 121.795 17.7284V25.0102C121.795 26.429 122.107 27.5134 122.73 28.2634C123.373 29.0133 124.297 29.3883 125.502 29.3883C126.707 29.3883 127.622 29.0133 128.244 28.2634C128.887 27.5134 129.209 26.429 129.209 25.0102V17.7585C129.209 14.9125 131.516 12.6054 134.362 12.6054V25.0102C134.362 27.0371 133.97 28.7498 133.186 30.1484C132.403 31.5267 131.328 32.5706 129.962 33.28C128.616 33.9692 127.089 34.3137 125.382 34.3137C123.674 34.3137 122.167 33.9692 120.861 33.28C119.555 32.5909 118.531 31.547 117.788 30.1484C117.044 28.7498 116.673 27.0371 116.673 25.0102V12.6054Z" fill="#007F5F"/>
<path d="M153.415 28.0506C153.415 29.1856 153.124 30.2295 152.541 31.1821C151.979 32.1348 151.135 32.8949 150.01 33.4624C148.905 34.03 147.559 34.3137 145.972 34.3137C143.581 34.3137 141.612 33.7259 140.065 32.5503C138.518 31.3747 137.674 29.7329 137.534 27.6249H140.88C142.094 27.6249 142.99 28.6967 143.862 29.5403C144.364 30.0065 144.997 30.2396 145.761 30.2396C146.424 30.2396 146.946 30.0572 147.328 29.6924C147.709 29.3275 147.9 28.8411 147.9 28.233C147.9 27.6857 147.719 27.2297 147.358 26.8648C147.016 26.5 146.584 26.2061 146.062 25.9831C145.54 25.7399 144.816 25.4561 143.892 25.1318C142.546 24.6656 141.441 24.2197 140.577 23.794C139.734 23.3481 139 22.6995 138.378 21.8482C137.775 20.9766 137.474 19.8517 137.474 18.4734C137.474 17.1964 137.795 16.0917 138.438 15.1594C139.081 14.227 139.965 13.5176 141.09 13.0311C142.235 12.5244 143.541 12.271 145.007 12.271C147.378 12.271 149.256 12.8385 150.643 13.9736C152.049 15.1087 152.842 16.6694 153.023 18.6558H149.33C148.251 18.6558 147.443 17.7316 146.665 16.9836C146.263 16.5579 145.71 16.3451 145.007 16.3451C144.405 16.3451 143.912 16.5073 143.531 16.8316C143.169 17.1559 142.988 17.6322 142.988 18.2605C142.988 18.7673 143.149 19.2031 143.47 19.5679C143.812 19.9125 144.234 20.1962 144.736 20.4192C145.238 20.6422 145.962 20.9259 146.906 21.2705C148.272 21.7367 149.387 22.2029 150.251 22.6691C151.115 23.115 151.858 23.7738 152.481 24.6453C153.104 25.5169 153.415 26.652 153.415 28.0506Z" fill="#007F5F"/>
<path d="M171.874 12.6054C171.874 14.8891 170.023 16.7404 167.739 16.7404H166.088V34.1009H160.905V16.7404H159.314C157.03 16.7404 155.179 14.8891 155.179 12.6054H171.874Z" fill="#007F5F"/>
<path d="M179.5 16.7404V21.2401H186.702V25.1622H179.5V29.9356H183.441C185.742 29.9356 187.607 31.8005 187.607 34.1009H174.347V12.6054H187.607C187.607 14.8891 185.755 16.7404 183.472 16.7404H179.5Z" fill="#007F5F"/>
<path d="M210 23.3076C210 25.4156 209.548 27.2905 208.644 28.9323C207.76 30.5538 206.474 31.8206 204.787 32.7327C203.119 33.6449 201.15 34.1009 198.88 34.1009H190.834V12.6054H198.88C201.171 12.6054 203.149 13.0514 204.817 13.9432C206.484 14.835 207.76 16.0917 208.644 17.7133C209.548 19.3348 210 21.1996 210 23.3076ZM198.428 29.4491C200.437 29.4491 201.994 28.912 203.099 27.8377C204.224 26.7635 204.787 25.2534 204.787 23.3076C204.787 21.3617 204.224 19.8517 203.099 18.7774C201.994 17.7031 200.437 17.166 198.428 17.166H195.987V29.4491H198.428Z" fill="#007F5F"/>
<g clip-path="url(#clip0_503_1535)">
<path d="M36.7947 75C36.6191 75 36.4436 74.9781 36.2718 74.9343C27.6365 72.7343 19.8641 67.5849 14.3861 60.435C8.90832 53.2848 5.8916 44.3512 5.8916 35.28V13.1836C5.8916 12.2676 6.44915 11.4477 7.29058 11.1262L36.0377 0.139856C36.5257 -0.0466187 37.0638 -0.0466187 37.5517 0.139856L66.2988 11.1262C67.1403 11.4477 67.6979 12.2676 67.6979 13.1836V35.28C67.6979 44.3513 64.6812 53.2848 59.2033 60.435C53.7254 67.5851 45.9529 72.7345 37.3175 74.9343C37.1459 74.9781 36.9704 75 36.7947 75Z" fill="url(#paint0_linear_503_1535)"/>
<path d="M37.3193 74.9344C45.9546 72.7343 53.727 67.585 59.2051 60.4351C64.6828 53.2849 67.6995 44.3512 67.6995 35.28V13.1836C67.6995 12.2676 67.142 11.4478 66.3006 11.1262L37.5534 0.139893C37.3094 0.046582 37.053 0 36.7964 0V75C36.972 75 37.1475 74.9782 37.3193 74.9344Z" fill="url(#paint1_linear_503_1535)"/>
<path d="M36.3675 71.6697L36.3295 71.8148L36.3674 71.6697C28.6897 69.6619 21.7775 64.9617 16.9052 58.4341C12.0331 51.9061 9.34922 43.7485 9.34922 35.465V15.2099C9.34922 14.4287 9.81233 13.7347 10.5033 13.4636L10.4485 13.324L10.5033 13.4636L36.1752 3.39284C36.5757 3.23572 37.0172 3.23572 37.4176 3.39284L37.4724 3.2532L37.4176 3.39284L63.0894 13.4636L63.1442 13.324L63.0895 13.4637C63.7806 13.7347 64.2437 14.4287 64.2437 15.2099V35.465C64.2437 43.7487 61.5598 51.9061 56.6876 58.4341C51.8154 64.9618 44.9031 69.662 37.2253 71.6697L37.2253 71.6697C37.0845 71.7066 36.9405 71.725 36.7964 71.725C36.6524 71.725 36.5084 71.7066 36.3675 71.6697Z" stroke="white" stroke-width="0.3"/>
<path d="M36.7966 65.8567C36.5688 65.8567 36.341 65.8199 36.1219 65.7462C23.1996 61.4066 14.5176 49.1632 14.5176 35.28V19.2744C14.5176 18.3584 15.0751 17.5385 15.9166 17.217L36.0395 9.52657C36.5275 9.3401 37.0657 9.3401 37.5535 9.52657L57.6765 17.217C58.5179 17.5385 59.0755 18.3584 59.0755 19.2744V35.28C59.0755 49.1632 50.3934 61.4066 37.4711 65.7462C37.2522 65.8199 37.0244 65.8567 36.7966 65.8567Z" fill="url(#paint2_linear_503_1535)"/>
<path d="M37.4711 65.7463C50.3933 61.4067 59.0754 49.1632 59.0754 35.28V19.2744C59.0754 18.3584 58.5178 17.5386 57.6764 17.217L37.5534 9.52661C37.3095 9.4333 37.053 9.38672 36.7964 9.38672V65.8567C37.0242 65.8567 37.252 65.82 37.4711 65.7463Z" fill="url(#paint3_linear_503_1535)"/>
</g>
<path d="M38.6038 56.249C35.6569 52.0851 24.7901 36.3758 17.8833 32.5904C25.2506 31.1709 34.0398 37.1688 36.8025 39.0615C53.3789 22.0273 59.7848 13.6635 73.5985 6.09277C49.6548 31.6441 42.2875 46.7856 38.6038 56.249Z" fill="#FEBD13"/>
<path d="M38.1434 49.6246C29.8552 38.7417 26.632 36.3758 17.8833 32.5904C24.5371 31.249 33.7361 34.374 36.8025 39.0615C53.3789 22.0273 59.7848 13.6635 73.5985 6.09277C50.5757 27.8587 41.827 40.1612 38.1434 49.6246Z" fill="url(#paint4_linear_503_1535)"/>
<defs>
<linearGradient id="paint0_linear_503_1535" x1="18.3966" y1="-3.58722e-05" x2="37.4619" y2="74.83" gradientUnits="userSpaceOnUse">
<stop stop-color="#55A630"/>
<stop offset="1" stop-color="#2B9348"/>
</linearGradient>
<linearGradient id="paint1_linear_503_1535" x1="52.248" y1="-3.15921e-07" x2="39.3993" y2="71.7921" gradientUnits="userSpaceOnUse">
<stop stop-color="#2B9348"/>
<stop offset="1" stop-color="#55A630"/>
</linearGradient>
<linearGradient id="paint2_linear_503_1535" x1="21.4648" y1="9.37496" x2="37.3449" y2="65.7021" gradientUnits="userSpaceOnUse">
<stop stop-color="#007F5F"/>
<stop offset="1" stop-color="#007F5F"/>
</linearGradient>
<linearGradient id="paint3_linear_503_1535" x1="47.9359" y1="9.38672" x2="37.9699" y2="65.5612" gradientUnits="userSpaceOnUse">
<stop stop-color="#55A630"/>
<stop offset="1" stop-color="#2B9348"/>
</linearGradient>
<linearGradient id="paint4_linear_503_1535" x1="70.5324" y1="6.24902" x2="37.6431" y2="43.1315" gradientUnits="userSpaceOnUse">
<stop stop-color="white"/>
<stop offset="1" stop-color="#F7FAFE"/>
</linearGradient>
<clipPath id="clip0_503_1535">
<rect width="73.5926" height="75" fill="white"/>
</clipPath>
</defs>
</svg>
